Coordinates
version=1
nRows=35
nColumns=38
inDegrees=no

Units are S.I. units (second, meters, Newtons, ...)
If the header above contains a line with 'inDegrees', this indicates whether rotational values are in degrees (yes) or radians (no).

endheader
time	pelvis_tilt	pelvis_list	pelvis_rotation	pelvis_tx	pelvis_ty	pelvis_tz	hip_flexion_r	hip_adduction_r	hip_rotation_r	knee_angle_r	ankle_angle_r	subtalar_angle_r	mtp_angle_r	hip_flexion_l	hip_adduction_l	hip_rotation_l	knee_angle_l	ankle_angle_l	subtalar_angle_l	mtp_angle_l	lumbar_extension	lumbar_bending	lumbar_rotation	arm_flex_r	arm_add_r	arm_rot_r	elbow_flex_r	pro_sup_r	wrist_flex_r	wrist_dev_r	arm_flex_l	arm_add_l	arm_rot_l	elbow_flex_l	pro_sup_l	wrist_flex_l	wrist_dev_l
4.47	-2.80576	1.49725	-1.89158	0.61218	0.733828	1.03366	0.169501	-0.0543088	0.0724007	1.26233	-0.224045	0	0	-0.040098	0.071768	-0.243902	0.24064	-0.324333	0	0	-0.359149	-0.0978708	0.001879	0.983946	-0.418489	0.749506	1.08867	1.5708	0	0	1.04554	-0.139867	0.917991	0.925291	1.5708	0	0
4.48	-2.86719	1.49471	-1.82782	0.610572	0.740287	1.03453	0.186651	-0.0511688	0.0694606	1.26039	-0.218027	0	0	-0.0568934	0.0705296	-0.240001	0.228314	-0.325931	0	0	-0.364853	-0.0913266	-0.000568702	0.985886	-0.417774	0.748507	1.0865	1.5708	0	0	1.04566	-0.137833	0.915201	0.923635	1.5708	0	0
4.49	-2.92062	1.49255	-1.77191	0.609018	0.746717	1.03526	0.203202	-0.0477645	0.0664634	1.25323	-0.210591	0	0	-0.0726406	0.0692638	-0.236475	0.21656	-0.327494	0	0	-0.369407	-0.0852987	-0.00375923	0.98911	-0.41678	0.75044	1.08302	1.5708	0	0	1.04596	-0.136402	0.913301	0.921767	1.5708	0	0
4.5	-2.97163	1.49093	-1.7184	0.607566	0.7531	1.0359	0.219939	-0.0446629	0.0621222	1.24339	-0.202593	0	0	-0.0873305	0.0675899	-0.232952	0.205162	-0.329015	0	0	-0.373086	-0.0795394	-0.00712284	0.992944	-0.415809	0.753686	1.0792	1.5708	0	0	1.04629	-0.135178	0.91141	0.920014	1.5708	0	0
4.51	-3.02161	1.48968	-1.66614	0.606214	0.759419	1.03645	0.236612	-0.0415866	0.0572591	1.23096	-0.194163	0	0	-0.101323	0.0655388	-0.229276	0.193743	-0.330503	0	0	-0.376258	-0.0738877	-0.0100895	0.997013	-0.41497	0.756959	1.07543	1.5708	0	0	1.04685	-0.134025	0.909456	0.918552	1.5708	0	0
4.52	-3.0712	1.48888	-1.61458	0.604938	0.765676	1.03688	0.253371	-0.0385731	0.0514651	1.21576	-0.185912	0	0	-0.114216	0.0630382	-0.226004	0.183109	-0.331875	0	0	-0.37873	-0.0682056	-0.0124352	1.00112	-0.414376	0.760039	1.0719	1.5708	0	0	1.04768	-0.132766	0.907751	0.917078	1.5708	0	0
4.53	-3.11948	1.48846	-1.56463	0.603724	0.7719	1.03719	0.270158	-0.0358909	0.0448652	1.19809	-0.178604	0	0	-0.126256	0.060427	-0.222915	0.173056	-0.332762	0	0	-0.380507	-0.0625027	-0.0142897	1.00535	-0.414041	0.763434	1.06854	1.5708	0	0	1.04855	-0.131227	0.905912	0.915231	1.5708	0	0
4.54	3.1195	1.48855	-1.51902	0.602587	0.778109	1.03738	0.286914	-0.033724	0.038078	1.17834	-0.172009	0	0	-0.137556	0.0581554	-0.219831	0.162975	-0.333649	0	0	-0.38165	-0.0573698	-0.016013	1.00939	-0.413697	0.766718	1.06552	1.5708	0	0	1.04913	-0.129969	0.90361	0.91399	1.5708	0	0
4.55	3.08006	1.48917	-1.47873	0.601505	0.784266	1.03742	0.303553	-0.0323822	0.031837	1.15633	-0.166141	0	0	-0.147971	0.0564897	-0.217272	0.153133	-0.334788	0	0	-0.382142	-0.0528559	-0.0173624	1.01346	-0.413421	0.770211	1.06286	1.5708	0	0	1.04959	-0.128949	0.901073	0.913113	1.5708	0	0
4.56	3.04444	1.49012	-1.44277	0.600498	0.790385	1.03737	0.319959	-0.0320321	0.0249925	1.13194	-0.161258	0	0	-0.157873	0.0552991	-0.215454	0.143505	-0.335934	0	0	-0.382203	-0.0488543	-0.0184902	1.01745	-0.412804	0.773497	1.06037	1.5708	0	0	1.05003	-0.128669	0.898589	0.912902	1.5708	0	0
4.57	3.01242	1.49114	-1.41056	0.599551	0.796476	1.03723	0.335549	-0.0322587	0.0168035	1.10564	-0.156833	0	0	-0.167555	0.0544777	-0.214125	0.134054	-0.336937	0	0	-0.382097	-0.0453778	-0.0194086	1.02141	-0.412244	0.776696	1.05821	1.5708	0	0	1.05067	-0.128581	0.896238	0.912825	1.5708	0	0
4.58	2.98509	1.49263	-1.38311	0.598686	0.802557	1.03696	0.350882	-0.033193	0.00815247	1.07753	-0.153747	0	0	-0.176743	0.0541477	-0.212922	0.124596	-0.338203	0	0	-0.381317	-0.0425329	-0.0202883	1.02531	-0.41151	0.780085	1.05603	1.5708	0	0	1.05142	-0.128293	0.894201	0.912471	1.5708	0	0
4.59	2.95942	1.49475	-1.35765	0.597883	0.808652	1.03656	0.36607	-0.0343128	-0.000612683	1.04742	-0.151913	0	0	-0.185397	0.0542224	-0.211828	0.115006	-0.339582	0	0	-0.379571	-0.0399795	-0.0209407	1.02901	-0.41038	0.783462	1.05347	1.5708	0	0	1.05186	-0.127996	0.892193	0.912054	1.5708	0	0
4.6	2.93377	1.49706	-1.33225	0.597089	0.814776	1.03607	0.380525	-0.0354819	-0.010724	1.01531	-0.150974	0	0	-0.193852	0.0544407	-0.210668	0.105605	-0.34064	0	0	-0.377562	-0.0375985	-0.0216947	1.03243	-0.409245	0.786654	1.05141	1.5708	0	0	1.05179	-0.129103	0.889869	0.913086	1.5708	0	0
4.61	2.90991	1.4994	-1.30868	0.596319	0.820958	1.0355	0.393972	-0.0371541	-0.0218785	0.981277	-0.150708	0	0	-0.202525	0.0549775	-0.209527	0.0957621	-0.341719	0	0	-0.375392	-0.0354706	-0.0224098	1.03553	-0.408281	0.789796	1.04996	1.5708	0	0	1.0514	-0.130302	0.88711	0.91441	1.5708	0	0
4.62	2.88843	1.50187	-1.28758	0.595586	0.827198	1.03485	0.406663	-0.039289	-0.0334593	0.945863	-0.151025	0	0	-0.211314	0.0559382	-0.208131	0.0854056	-0.343067	0	0	-0.372845	-0.0336224	-0.0229425	1.03807	-0.407368	0.792419	1.049	1.5708	0	0	1.05096	-0.131029	0.884495	0.915309	1.5708	0	0
4.63	2.86898	1.50462	-1.26839	0.594891	0.833524	1.03409	0.418695	-0.0416152	-0.0460003	0.909478	-0.151472	0	0	-0.219698	0.0570774	-0.206794	0.0755825	-0.344367	0	0	-0.369577	-0.0319104	-0.0232759	1.03996	-0.40663	0.79452	1.04843	1.5708	0	0	1.05036	-0.131393	0.882306	0.915773	1.5708	0	0
4.64	2.84636	1.50761	-1.24615	0.59423	0.839931	1.03321	0.429976	-0.0433011	-0.0598054	0.872084	-0.151905	0	0	-0.227593	0.0580783	-0.205647	0.0665488	-0.344807	0	0	-0.36557	-0.0300121	-0.0233166	1.04146	-0.405886	0.7965	1.04802	1.5708	0	0	1.04939	-0.132521	0.880486	0.916797	1.5708	0	0
4.65	2.81941	1.51069	-1.21944	0.593628	0.846432	1.03227	0.440622	-0.044396	-0.0751253	0.834975	-0.152396	0	0	-0.235198	0.0587748	-0.203726	0.0582112	-0.344033	0	0	-0.36107	-0.0280498	-0.0230827	1.04239	-0.405325	0.797834	1.04778	1.5708	0	0	1.04836	-0.133205	0.878668	0.917289	1.5708	0	0
4.66	2.7888	1.51435	-1.18888	0.593091	0.853036	1.03123	0.451222	-0.0455341	-0.0903184	0.798851	-0.152235	0	0	-0.241155	0.05918	-0.203383	0.0523766	-0.342288	0	0	-0.35576	-0.0267891	-0.0222424	1.04164	-0.40569	0.796965	1.04879	1.5708	0	0	1.04827	-0.132989	0.878885	0.916604	1.5708	0	0
4.67	2.75572	1.51751	-1.15552	0.592568	0.859728	1.03018	0.460475	-0.0467816	-0.105762	0.763511	-0.152527	0	0	-0.248106	0.0595755	-0.201154	0.0454277	-0.341763	0	0	-0.350623	-0.0245976	-0.022033	1.04171	-0.405579	0.797444	1.04937	1.5708	0	0	1.04746	-0.13311	0.877472	0.916299	1.5708	0	0
4.68	2.71848	1.5194	-1.11781	0.592014	0.866505	1.02917	0.467109	-0.0476041	-0.121725	0.727684	-0.152199	0	0	-0.257449	0.0597962	-0.195937	0.0357038	-0.342397	0	0	-0.346226	-0.0207214	-0.0220553	1.04307	-0.405314	0.800011	1.04933	1.5708	0	0	1.046	-0.13317	0.874493	0.915962	1.5708	0	0
4.69	2.67884	1.52148	-1.07777	0.591553	0.873422	1.02807	0.473202	-0.0477878	-0.13688	0.694518	-0.148478	0	0	-0.265681	0.0597941	-0.193592	0.0284661	-0.341291	0	0	-0.341322	-0.017024	-0.0219976	1.04404	-0.405195	0.802497	1.0497	1.5708	0	0	1.04413	-0.133378	0.871401	0.916266	1.5708	0	0
4.7	2.63462	1.52331	-1.03276	0.591151	0.880433	1.02691	0.478348	-0.047366	-0.151007	0.663474	-0.143589	0	0	-0.273384	0.0592736	-0.19244	0.0230216	-0.337428	0	0	-0.336247	-0.0121271	-0.0237414	1.04687	-0.403372	0.808302	1.04843	1.5708	0	0	1.04015	-0.135565	0.864845	0.919037	1.5708	0	0
4.71	2.59598	1.5254	-0.992927	0.590847	0.887579	1.02568	0.483317	-0.0472462	-0.16235	0.635618	-0.138703	0	0	-0.280916	0.0590201	-0.19059	0.0181716	-0.338077	0	0	-0.331333	-0.0110004	-0.0215718	1.04199	-0.407368	0.802707	1.05432	1.5708	0	0	1.04134	-0.133186	0.869416	0.916868	1.5708	0	0
4.72	2.54731	1.52672	-0.942365	0.590554	0.89483	1.02448	0.486402	-0.0460065	-0.171705	0.609099	-0.133432	0	0	-0.288908	0.0577768	-0.187384	0.0131598	-0.337079	0	0	-0.326482	-0.0083592	-0.0207185	1.03786	-0.410516	0.799086	1.05941	1.5708	0	0	1.04106	-0.131827	0.871943	0.915912	1.5708	0	0
4.73	2.49405	1.52763	-0.886832	0.59031	0.90212	1.02324	0.488874	-0.0442996	-0.177777	0.585954	-0.129851	0	0	-0.296308	0.0558149	-0.184518	0.0097158	-0.335394	0	0	-0.321514	-0.00486869	-0.0207247	1.03444	-0.413063	0.797033	1.06375	1.5708	0	0	1.03973	-0.131272	0.872949	0.916175	1.5708	0	0
4.74	2.4384	1.52792	-0.828533	0.590094	0.909441	1.022	0.490159	-0.0420212	-0.180209	0.564853	-0.127382	0	0	-0.303486	0.0531148	-0.181599	0.00752685	-0.333196	0	0	-0.316665	-0.000564107	-0.0210558	1.0315	-0.415547	0.795909	1.06769	1.5708	0	0	1.03835	-0.130623	0.874211	0.916165	1.5708	0	0
4.75	2.38859	1.52733	-0.775776	0.589844	0.916867	1.02079	0.489607	-0.0390437	-0.179073	0.54718	-0.124859	0	0	-0.311295	0.0499439	-0.178831	0.00579236	-0.330565	0	0	-0.312326	0.00442062	-0.0216186	1.02892	-0.418243	0.795457	1.07154	1.5708	0	0	1.037	-0.129833	0.875509	0.91602	1.5708	0	0
4.76	2.35049	1.52604	-0.734598	0.589588	0.924411	1.01963	0.487379	-0.0355438	-0.174793	0.532848	-0.122007	0	0	-0.319683	0.0465689	-0.176753	0.00494155	-0.326991	0	0	-0.308683	0.00980026	-0.0222898	1.02656	-0.42116	0.795171	1.07552	1.5708	0	0	1.03547	-0.128996	0.876249	0.916159	1.5708	0	0
4.77	2.32606	1.52513	-0.707152	0.589407	0.932006	1.01845	0.485996	-0.0329399	-0.167838	0.525377	-0.120639	0	0	-0.327407	0.043822	-0.175939	0.00589437	-0.324053	0	0	-0.305061	0.0143971	-0.0233023	1.02431	-0.423623	0.794656	1.07896	1.5708	0	0	1.03384	-0.128346	0.87665	0.916794	1.5708	0	0
4.78	2.3106	1.52393	-0.68849	0.589297	0.939683	1.01726	0.48352	-0.0300929	-0.157914	0.521267	-0.120103	0	0	-0.33537	0.0409222	-0.175622	0.00765218	-0.320488	0	0	-0.301857	0.0188637	-0.0244576	1.02212	-0.426237	0.793993	1.08271	1.5708	0	0	1.03214	-0.127659	0.876836	0.917676	1.5708	0	0
4.79	2.30931	1.5221	-0.683947	0.589201	0.947479	1.01611	0.479136	-0.026567	-0.145366	0.519556	-0.121039	0	0	-0.34404	0.0378502	-0.176942	0.0102368	-0.312233	0	0	-0.299741	0.0234694	-0.0260455	1.02062	-0.428992	0.794084	1.08704	1.5708	0	0	1.02948	-0.127157	0.874332	0.919977	1.5708	0	0
4.8	2.30527	1.52131	-0.676202	0.589154	0.955432	1.01486	0.476642	-0.023854	-0.134872	0.525877	-0.122531	0	0	-0.351582	0.0353267	-0.178346	0.0134251	-0.307959	0	0	-0.296265	0.0271615	-0.0287475	1.01841	-0.430834	0.793552	1.09063	1.5708	0	0	1.02631	-0.12723	0.871935	0.922868	1.5708	0	0
4.81	2.29905	1.52101	-0.665971	0.589193	0.963493	1.01355	0.474671	-0.0215243	-0.125268	0.536978	-0.125231	0	0	-0.358168	0.032843	-0.180717	0.0178297	-0.303414	0	0	-0.2921	0.0303642	-0.0318194	1.01561	-0.432741	0.792569	1.09435	1.5708	0	0	1.02291	-0.1272	0.869583	0.925818	1.5708	0	0
